<?xml version="1.0" encoding="utf-8"?>
<!-- Svg Vector Icons : http://www.onlinewebfonts.com/icon -->
<!DOCTYPE svg PUBLIC "-//W3C//DTD SVG 1.1//EN" "http://www.w3.org/Graphics/SVG/1.1/DTD/svg11.dtd">
<svg version="1.1" xmlns="http://www.w3.org/2000/svg" xmlns:xlink="http://www.w3.org/1999/xlink" x="0px" y="0px" viewBox="0 0 256 256" enable-background="new 0 0 256 256" xml:space="preserve">
<metadata> Svg Vector Icons : http://www.onlinewebfonts.com/icon </metadata>
<g><g><path fill="#000000" d="M245.8,136.1c0.1-1.3,0.1-2.5,0.2-3.8v3.8C246,136.1,245.9,136.1,245.8,136.1z M49.4,40.1C69.2,22.4,95,11.3,123.3,10.2l6,0.5c-0.2,2.4-0.4,4.8-0.4,7.3c0,64.8,52.2,117.4,116.8,118.1c-1.6,23.9-10.3,45.9-24,63.8L49.4,40.1z M149.5,15.8c0-1.1,0.1-2.2,0.2-3.3l3.2,0.3c49.3,10.6,87.2,51.8,92.7,102.8C192.2,113.5,149.5,69.7,149.5,15.8z M246,115.5v8.8c-0.1-3-0.2-5.9-0.5-8.8C245.7,115.5,245.8,115.5,246,115.5z M136.5,245.8h-3c0-0.6,0.1-1.2,0.1-1.8c0-65.3-52.9-118.2-118.2-118.2c-1.8,0-3.6,0.2-5.4,0.3v-1.5c0.8-26.5,10.2-50.8,25.6-70.1l172.7,160.2C189.2,232.5,164.2,243.9,136.5,245.8z M10,132.3c0.2,4.8,0.6,9.6,1.4,14.2c-0.5,0-0.9,0.1-1.4,0.1V132.3z M13.6,146.4c54.9,0,99.4,44.3,99.8,99c-52.3-6.5-94-47.1-102-98.9C12.1,146.5,12.8,146.4,13.6,146.4z M113.5,245.8c0-0.1,0-0.3,0-0.4c1.5,0.2,3,0.3,4.5,0.4H113.5z"/></g></g>
</svg>